<svg width="17" height="17" viewBox="0 0 17 17" fill="none" xmlns="http://www.w3.org/2000/svg">
<g clip-path="url(#clip0)">
<path d="M8.53872 0C8.53417 0.00455481 8.52506 0.00455481 8.51139 0.00455481C3.90193 0.00455481 0.15332 3.75316 0.15332 8.36263C0.15332 10.2438 0.795548 12.0702 1.97069 13.5414L0.754555 16.3654C0.654349 16.5977 0.763665 16.8665 0.991405 16.9621C1.07339 16.9985 1.16449 17.0077 1.25103 16.994L5.71019 16.2106C6.60293 16.534 7.54122 16.6979 8.48862 16.6934C13.0981 16.6934 16.8467 12.9448 16.8467 8.3353C16.8558 3.7395 13.1345 0.00455481 8.53872 0ZM8.49317 15.787C7.61409 15.787 6.74413 15.6275 5.91971 15.3178C5.84227 15.2859 5.76029 15.2814 5.6783 15.295L1.92514 15.9509L2.91809 13.6416C2.98641 13.4822 2.95908 13.2955 2.84521 13.1634C2.30774 12.5394 1.87959 11.8288 1.57897 11.0591C1.24192 10.1982 1.06884 9.2827 1.06884 8.35807C1.06884 4.24964 4.41207 0.910962 8.51595 0.910962C12.6107 0.901852 15.9357 4.2132 15.9403 8.30797C15.9403 8.31708 15.9403 8.32619 15.9403 8.3353C15.9403 12.4483 12.5971 15.787 8.49317 15.787Z" fill="#616161"/>
<path d="M8.13785 6.68188H5.67826C5.42774 6.68188 5.22278 6.88685 5.22278 7.13737C5.22278 7.38788 5.42774 7.59285 5.67826 7.59285H8.13785C8.38836 7.59285 8.59333 7.38788 8.59333 7.13737C8.59333 6.88685 8.38836 6.68188 8.13785 6.68188Z" fill="#616161"/>
<path d="M11.3262 8.95929H5.67826C5.42774 8.95929 5.22278 9.16426 5.22278 9.41477C5.22278 9.66529 5.42774 9.87025 5.67826 9.87025H11.3262C11.5767 9.87025 11.7817 9.66529 11.7817 9.41477C11.7817 9.16426 11.5767 8.95929 11.3262 8.95929Z" fill="#616161"/>
</g>
<defs>
<clipPath id="clip0">
<rect width="17" height="17" fill="white"/>
</clipPath>
</defs>
</svg>
