<svg width="17" height="17" viewBox="0 0 17 17" fill="none" xmlns="http://www.w3.org/2000/svg">
<g clip-path="url(#clip0)">
<path d="M6.55204 0H1.23954C0.556023 0 0 0.556023 0 1.23954V4.42704C0 5.11069 0.556023 5.66671 1.23954 5.66671H6.55204C7.23569 5.66671 7.79171 5.11069 7.79171 4.42704V1.23954C7.79171 0.556023 7.23569 0 6.55204 0Z" fill="white"/>
<path d="M6.72719 6H1.27268C0.570886 6 0 6.61676 0 7.37509V15.6251C0 16.3832 0.570886 17 1.27268 17H6.72719C7.42911 17 8 16.3832 8 15.6251V7.37509C8 6.61676 7.42911 6 6.72719 6Z" fill="white"/>
<path d="M15.7605 11.3333H10.448C9.76434 11.3333 9.20831 11.8893 9.20831 12.573V15.7605C9.20831 16.444 9.76434 17 10.448 17H15.7605C16.444 17 17 16.444 17 15.7605V12.573C17 11.8893 16.444 11.3333 15.7605 11.3333Z" fill="white"/>
<path d="M15.7605 0H10.448C9.76434 0 9.20831 0.556023 9.20831 1.23954V8.67704C9.20831 9.36069 9.76434 9.91671 10.448 9.91671H15.7605C16.444 9.91671 17 9.36069 17 8.67704V1.23954C17 0.556023 16.444 0 15.7605 0V0Z" fill="white"/>
</g>
<defs>
<clipPath id="clip0">
<rect width="17" height="17" fill="white"/>
</clipPath>
</defs>
</svg>
